# xmcd CD database file
#
# Track frame offsets:
#	150
#	19349
#	32044
#	47690
#	73008
#	84080
#	98740
#	110316
#	126691
#	140518
#
# Disc length: 2083 seconds
#
# Revision: 0
# Processed by: cddbd v1.5.2PL0 Copyright (c) Steve Scherf et al.
# Submitted via: CDex 1.79
#
DISCID=8508210a
DTITLE=Master Cuts - Life..Styles - Bar Life - Disc 2
DYEAR=2007
DGENRE=New Age
TTITLE0=Wu-Tang Clan - Gravel Pit
TTITLE1=RUN-DMC - My Adidas
TTITLE2=Cypress Hill - Insane In The Brain
TTITLE3=Leftfield and Afrika Bambaataa - Afrika Shox
TTITLE4=Fire Island - Take Care Of Love
TTITLE5=High N Dry - Left Alone
TTITLE6=Monty Cape - Banger (deep underground mix)
TTITLE7=Ignition - Time To Kill
TTITLE8=Colbie - Me My Way
TTITLE9=Magnum Opus - The Way (sweet house mix)
EXTD=YEAR: 2007
EXTT0=
EXTT1=
EXTT2=
EXTT3=
EXTT4=
EXTT5=
EXTT6=
EXTT7=
EXTT8=
EXTT9=
PLAYORDER=
